<?xml version="1.0" encoding="UTF-8" standalone="no"?>
<!DOCTYPE svg PUBLIC "-//W3C//DTD SVG 1.1//EN"
 "http://www.w3.org/Graphics/SVG/1.1/DTD/svg11.dtd">
<!-- Generated by graphviz version 2.26.3 (20100126.1600)
 -->
<!-- Title: controllers_diagram Pages: 1 -->
<svg width="1547pt" height="1386pt"
 viewBox="0.00 0.00 1547.00 1385.61" xmlns="http://www.w3.org/2000/svg" xmlns:xlink="http://www.w3.org/1999/xlink">
<g id="graph1" class="graph" transform="scale(1 1) rotate(0) translate(4 1381.61)">
<title>controllers_diagram</title>
<polygon fill="white" stroke="white" points="-4,5 -4,-1381.61 1544,-1381.61 1544,5 -4,5"/>
<!-- _diagram_info -->
<g id="node1" class="node"><title>_diagram_info</title>
<text text-anchor="start" x="1296" y="-78.3" font-family="Times Roman,serif" font-size="13.00">Controllers diagram</text>
<text text-anchor="start" x="1296" y="-61.3" font-family="Times Roman,serif" font-size="13.00">Date: Aug 12 2013 &#45; 10:38</text>
<text text-anchor="start" x="1296" y="-44.3" font-family="Times Roman,serif" font-size="13.00">Migration version: 20130809133021</text>
<text text-anchor="start" x="1296" y="-27.3" font-family="Times Roman,serif" font-size="13.00">Generated by RailRoady 1.1.1</text>
<text text-anchor="start" x="1296" y="-10.3" font-family="Times Roman,serif" font-size="13.00">http://railroady.prestonlee.com</text>
</g>
<!-- StaticPagesController -->
<g id="node2" class="node"><title>StaticPagesController</title>
<polyline fill="none" stroke="black" points="15.2051,-757.908 156.205,-757.908 "/>
<path fill="none" stroke="black" d="M156.205,-757.908C162.205,-757.908 168.205,-763.908 168.205,-769.908"/>
<polyline fill="none" stroke="black" points="168.205,-769.908 168.205,-901.908 "/>
<path fill="none" stroke="black" d="M168.205,-901.908C168.205,-907.908 162.205,-913.908 156.205,-913.908"/>
<polyline fill="none" stroke="black" points="156.205,-913.908 15.2051,-913.908 "/>
<path fill="none" stroke="black" d="M15.2051,-913.908C9.20509,-913.908 3.20509,-907.908 3.20509,-901.908"/>
<polyline fill="none" stroke="black" points="3.20509,-901.908 3.20509,-769.908 "/>
<path fill="none" stroke="black" d="M3.20509,-769.908C3.20509,-763.908 9.20509,-757.908 15.2051,-757.908"/>
<text text-anchor="middle" x="85.7051" y="-897.308" font-family="Times Roman,serif" font-size="14.00">StaticPagesController</text>
<polyline fill="none" stroke="black" points="3.20509,-887.908 168.205,-887.908 "/>
<text text-anchor="start" x="11.2051" y="-871.308" font-family="Times Roman,serif" font-size="14.00">about</text>
<text text-anchor="start" x="11.2051" y="-853.308" font-family="Times Roman,serif" font-size="14.00">help</text>
<text text-anchor="start" x="11.2051" y="-835.308" font-family="Times Roman,serif" font-size="14.00">home</text>
<text text-anchor="start" x="11.2051" y="-817.308" font-family="Times Roman,serif" font-size="14.00">news</text>
<polyline fill="none" stroke="black" points="3.20509,-807.908 168.205,-807.908 "/>
<polyline fill="none" stroke="black" points="3.20509,-783.908 168.205,-783.908 "/>
<text text-anchor="start" x="11.2051" y="-767.308" font-family="Times Roman,serif" font-size="14.00">_layout</text>
</g>
<!-- UsersController -->
<g id="node3" class="node"><title>UsersController</title>
<polyline fill="none" stroke="black" points="675.535,-616.628 898.535,-616.628 "/>
<path fill="none" stroke="black" d="M898.535,-616.628C904.535,-616.628 910.535,-622.628 910.535,-628.628"/>
<polyline fill="none" stroke="black" points="910.535,-628.628 910.535,-778.628 "/>
<path fill="none" stroke="black" d="M910.535,-778.628C910.535,-784.628 904.535,-790.628 898.535,-790.628"/>
<polyline fill="none" stroke="black" points="898.535,-790.628 675.535,-790.628 "/>
<path fill="none" stroke="black" d="M675.535,-790.628C669.535,-790.628 663.535,-784.628 663.535,-778.628"/>
<polyline fill="none" stroke="black" points="663.535,-778.628 663.535,-628.628 "/>
<path fill="none" stroke="black" d="M663.535,-628.628C663.535,-622.628 669.535,-616.628 675.535,-616.628"/>
<text text-anchor="middle" x="787.035" y="-774.028" font-family="Times Roman,serif" font-size="14.00">UsersController</text>
<polyline fill="none" stroke="black" points="663.535,-764.628 910.535,-764.628 "/>
<text text-anchor="start" x="671.535" y="-748.028" font-family="Times Roman,serif" font-size="14.00">_one_time_conditions_valid_136?</text>
<text text-anchor="start" x="671.535" y="-730.028" font-family="Times Roman,serif" font-size="14.00">edit</text>
<text text-anchor="start" x="671.535" y="-712.028" font-family="Times Roman,serif" font-size="14.00">index</text>
<text text-anchor="start" x="671.535" y="-694.028" font-family="Times Roman,serif" font-size="14.00">show</text>
<text text-anchor="start" x="671.535" y="-676.028" font-family="Times Roman,serif" font-size="14.00">update</text>
<polyline fill="none" stroke="black" points="663.535,-666.628 910.535,-666.628 "/>
<polyline fill="none" stroke="black" points="663.535,-642.628 910.535,-642.628 "/>
<text text-anchor="start" x="671.535" y="-626.028" font-family="Times Roman,serif" font-size="14.00">_layout</text>
</g>
<!-- SamplesController -->
<g id="node4" class="node"><title>SamplesController</title>
<polyline fill="none" stroke="black" points="359.303,-1.5 478.303,-1.5 "/>
<path fill="none" stroke="black" d="M478.303,-1.5C484.303,-1.5 490.303,-7.5 490.303,-13.5"/>
<polyline fill="none" stroke="black" points="490.303,-13.5 490.303,-199.5 "/>
<path fill="none" stroke="black" d="M490.303,-199.5C490.303,-205.5 484.303,-211.5 478.303,-211.5"/>
<polyline fill="none" stroke="black" points="478.303,-211.5 359.303,-211.5 "/>
<path fill="none" stroke="black" d="M359.303,-211.5C353.303,-211.5 347.303,-205.5 347.303,-199.5"/>
<polyline fill="none" stroke="black" points="347.303,-199.5 347.303,-13.5 "/>
<path fill="none" stroke="black" d="M347.303,-13.5C347.303,-7.5 353.303,-1.5 359.303,-1.5"/>
<text text-anchor="middle" x="418.803" y="-194.9" font-family="Times Roman,serif" font-size="14.00">SamplesController</text>
<polyline fill="none" stroke="black" points="347.303,-185.5 490.303,-185.5 "/>
<text text-anchor="start" x="355.303" y="-168.9" font-family="Times Roman,serif" font-size="14.00">create</text>
<text text-anchor="start" x="355.303" y="-150.9" font-family="Times Roman,serif" font-size="14.00">destroy</text>
<text text-anchor="start" x="355.303" y="-132.9" font-family="Times Roman,serif" font-size="14.00">edit</text>
<text text-anchor="start" x="355.303" y="-114.9" font-family="Times Roman,serif" font-size="14.00">index</text>
<text text-anchor="start" x="355.303" y="-96.9" font-family="Times Roman,serif" font-size="14.00">new</text>
<text text-anchor="start" x="355.303" y="-78.9" font-family="Times Roman,serif" font-size="14.00">show</text>
<text text-anchor="start" x="355.303" y="-60.9" font-family="Times Roman,serif" font-size="14.00">update</text>
<polyline fill="none" stroke="black" points="347.303,-51.5 490.303,-51.5 "/>
<polyline fill="none" stroke="black" points="347.303,-27.5 490.303,-27.5 "/>
<text text-anchor="start" x="355.303" y="-10.9" font-family="Times Roman,serif" font-size="14.00">_layout</text>
</g>
<!-- ProjectsController -->
<g id="node5" class="node"><title>ProjectsController</title>
<polyline fill="none" stroke="black" points="461.883,-1130.11 684.883,-1130.11 "/>
<path fill="none" stroke="black" d="M684.883,-1130.11C690.883,-1130.11 696.883,-1136.11 696.883,-1142.11"/>
<polyline fill="none" stroke="black" points="696.883,-1142.11 696.883,-1364.11 "/>
<path fill="none" stroke="black" d="M696.883,-1364.11C696.883,-1370.11 690.883,-1376.11 684.883,-1376.11"/>
<polyline fill="none" stroke="black" points="684.883,-1376.11 461.883,-1376.11 "/>
<path fill="none" stroke="black" d="M461.883,-1376.11C455.883,-1376.11 449.883,-1370.11 449.883,-1364.11"/>
<polyline fill="none" stroke="black" points="449.883,-1364.11 449.883,-1142.11 "/>
<path fill="none" stroke="black" d="M449.883,-1142.11C449.883,-1136.11 455.883,-1130.11 461.883,-1130.11"/>
<text text-anchor="middle" x="573.383" y="-1359.51" font-family="Times Roman,serif" font-size="14.00">ProjectsController</text>
<polyline fill="none" stroke="black" points="449.883,-1350.11 696.883,-1350.11 "/>
<text text-anchor="start" x="457.883" y="-1333.51" font-family="Times Roman,serif" font-size="14.00">_one_time_conditions_valid_190?</text>
<text text-anchor="start" x="457.883" y="-1315.51" font-family="Times Roman,serif" font-size="14.00">create</text>
<text text-anchor="start" x="457.883" y="-1297.51" font-family="Times Roman,serif" font-size="14.00">destroy</text>
<text text-anchor="start" x="457.883" y="-1279.51" font-family="Times Roman,serif" font-size="14.00">edit</text>
<text text-anchor="start" x="457.883" y="-1261.51" font-family="Times Roman,serif" font-size="14.00">index</text>
<text text-anchor="start" x="457.883" y="-1243.51" font-family="Times Roman,serif" font-size="14.00">new</text>
<text text-anchor="start" x="457.883" y="-1225.51" font-family="Times Roman,serif" font-size="14.00">not_approved_projects</text>
<text text-anchor="start" x="457.883" y="-1207.51" font-family="Times Roman,serif" font-size="14.00">show</text>
<text text-anchor="start" x="457.883" y="-1189.51" font-family="Times Roman,serif" font-size="14.00">update</text>
<polyline fill="none" stroke="black" points="449.883,-1180.11 696.883,-1180.11 "/>
<polyline fill="none" stroke="black" points="449.883,-1156.11 696.883,-1156.11 "/>
<text text-anchor="start" x="457.883" y="-1139.51" font-family="Times Roman,serif" font-size="14.00">_layout</text>
</g>
<!-- LibrariesController -->
<g id="node6" class="node"><title>LibrariesController</title>
<polyline fill="none" stroke="black" points="680.86,-836.202 801.86,-836.202 "/>
<path fill="none" stroke="black" d="M801.86,-836.202C807.86,-836.202 813.86,-842.202 813.86,-848.202"/>
<polyline fill="none" stroke="black" points="813.86,-848.202 813.86,-1106.2 "/>
<path fill="none" stroke="black" d="M813.86,-1106.2C813.86,-1112.2 807.86,-1118.2 801.86,-1118.2"/>
<polyline fill="none" stroke="black" points="801.86,-1118.2 680.86,-1118.2 "/>
<path fill="none" stroke="black" d="M680.86,-1118.2C674.86,-1118.2 668.86,-1112.2 668.86,-1106.2"/>
<polyline fill="none" stroke="black" points="668.86,-1106.2 668.86,-848.202 "/>
<path fill="none" stroke="black" d="M668.86,-848.202C668.86,-842.202 674.86,-836.202 680.86,-836.202"/>
<text text-anchor="middle" x="741.36" y="-1101.6" font-family="Times Roman,serif" font-size="14.00">LibrariesController</text>
<polyline fill="none" stroke="black" points="668.86,-1092.2 813.86,-1092.2 "/>
<text text-anchor="start" x="676.86" y="-1075.6" font-family="Times Roman,serif" font-size="14.00">create</text>
<text text-anchor="start" x="676.86" y="-1057.6" font-family="Times Roman,serif" font-size="14.00">destroy</text>
<text text-anchor="start" x="676.86" y="-1039.6" font-family="Times Roman,serif" font-size="14.00">edit</text>
<text text-anchor="start" x="676.86" y="-1021.6" font-family="Times Roman,serif" font-size="14.00">index</text>
<text text-anchor="start" x="676.86" y="-1003.6" font-family="Times Roman,serif" font-size="14.00">my_libraries</text>
<text text-anchor="start" x="676.86" y="-985.602" font-family="Times Roman,serif" font-size="14.00">new</text>
<text text-anchor="start" x="676.86" y="-967.602" font-family="Times Roman,serif" font-size="14.00">show</text>
<text text-anchor="start" x="676.86" y="-949.602" font-family="Times Roman,serif" font-size="14.00">update</text>
<polyline fill="none" stroke="black" points="668.86,-940.202 813.86,-940.202 "/>
<polyline fill="none" stroke="black" points="668.86,-916.202 813.86,-916.202 "/>
<text text-anchor="start" x="676.86" y="-899.602" font-family="Times Roman,serif" font-size="14.00">_layout</text>
<text text-anchor="start" x="676.86" y="-881.602" font-family="Times Roman,serif" font-size="14.00">add_to_stock</text>
<text text-anchor="start" x="676.86" y="-863.602" font-family="Times Roman,serif" font-size="14.00">delete_from_stock</text>
<text text-anchor="start" x="676.86" y="-845.602" font-family="Times Roman,serif" font-size="14.00">get_number</text>
</g>
<!-- SharedmessagesController -->
<g id="node7" class="node"><title>SharedmessagesController</title>
<polyline fill="none" stroke="black" points="317.467,-885.105 493.467,-885.105 "/>
<path fill="none" stroke="black" d="M493.467,-885.105C499.467,-885.105 505.467,-891.105 505.467,-897.105"/>
<polyline fill="none" stroke="black" points="505.467,-897.105 505.467,-1029.11 "/>
<path fill="none" stroke="black" d="M505.467,-1029.11C505.467,-1035.11 499.467,-1041.11 493.467,-1041.11"/>
<polyline fill="none" stroke="black" points="493.467,-1041.11 317.467,-1041.11 "/>
<path fill="none" stroke="black" d="M317.467,-1041.11C311.467,-1041.11 305.467,-1035.11 305.467,-1029.11"/>
<polyline fill="none" stroke="black" points="305.467,-1029.11 305.467,-897.105 "/>
<path fill="none" stroke="black" d="M305.467,-897.105C305.467,-891.105 311.467,-885.105 317.467,-885.105"/>
<text text-anchor="middle" x="405.467" y="-1024.51" font-family="Times Roman,serif" font-size="14.00">SharedmessagesController</text>
<polyline fill="none" stroke="black" points="305.467,-1015.11 505.467,-1015.11 "/>
<text text-anchor="start" x="313.467" y="-998.505" font-family="Times Roman,serif" font-size="14.00">create</text>
<text text-anchor="start" x="313.467" y="-980.505" font-family="Times Roman,serif" font-size="14.00">index</text>
<text text-anchor="start" x="313.467" y="-962.505" font-family="Times Roman,serif" font-size="14.00">new</text>
<text text-anchor="start" x="313.467" y="-944.505" font-family="Times Roman,serif" font-size="14.00">show</text>
<polyline fill="none" stroke="black" points="305.467,-935.105 505.467,-935.105 "/>
<polyline fill="none" stroke="black" points="305.467,-911.105 505.467,-911.105 "/>
<text text-anchor="start" x="313.467" y="-894.505" font-family="Times Roman,serif" font-size="14.00">_layout</text>
</g>
<!-- MessagesController -->
<g id="node8" class="node"><title>MessagesController</title>
<polyline fill="none" stroke="black" points="22.809,-98.2353 149.809,-98.2353 "/>
<path fill="none" stroke="black" d="M149.809,-98.2353C155.809,-98.2353 161.809,-104.235 161.809,-110.235"/>
<polyline fill="none" stroke="black" points="161.809,-110.235 161.809,-188.235 "/>
<path fill="none" stroke="black" d="M161.809,-188.235C161.809,-194.235 155.809,-200.235 149.809,-200.235"/>
<polyline fill="none" stroke="black" points="149.809,-200.235 22.809,-200.235 "/>
<path fill="none" stroke="black" d="M22.809,-200.235C16.809,-200.235 10.809,-194.235 10.809,-188.235"/>
<polyline fill="none" stroke="black" points="10.809,-188.235 10.809,-110.235 "/>
<path fill="none" stroke="black" d="M10.809,-110.235C10.809,-104.235 16.809,-98.2353 22.809,-98.2353"/>
<text text-anchor="middle" x="86.309" y="-183.635" font-family="Times Roman,serif" font-size="14.00">MessagesController</text>
<polyline fill="none" stroke="black" points="10.809,-174.235 161.809,-174.235 "/>
<text text-anchor="start" x="18.809" y="-157.635" font-family="Times Roman,serif" font-size="14.00">index</text>
<polyline fill="none" stroke="black" points="10.809,-148.235 161.809,-148.235 "/>
<polyline fill="none" stroke="black" points="10.809,-124.235 161.809,-124.235 "/>
<text text-anchor="start" x="18.809" y="-107.635" font-family="Times Roman,serif" font-size="14.00">_layout</text>
</g>
<!-- PgmrunsController -->
<g id="node9" class="node"><title>PgmrunsController</title>
<polyline fill="none" stroke="black" points="1040.36,-437.315 1162.36,-437.315 "/>
<path fill="none" stroke="black" d="M1162.36,-437.315C1168.36,-437.315 1174.36,-443.315 1174.36,-449.315"/>
<polyline fill="none" stroke="black" points="1174.36,-449.315 1174.36,-599.315 "/>
<path fill="none" stroke="black" d="M1174.36,-599.315C1174.36,-605.315 1168.36,-611.315 1162.36,-611.315"/>
<polyline fill="none" stroke="black" points="1162.36,-611.315 1040.36,-611.315 "/>
<path fill="none" stroke="black" d="M1040.36,-611.315C1034.36,-611.315 1028.36,-605.315 1028.36,-599.315"/>
<polyline fill="none" stroke="black" points="1028.36,-599.315 1028.36,-449.315 "/>
<path fill="none" stroke="black" d="M1028.36,-449.315C1028.36,-443.315 1034.36,-437.315 1040.36,-437.315"/>
<text text-anchor="middle" x="1101.36" y="-594.715" font-family="Times Roman,serif" font-size="14.00">PgmrunsController</text>
<polyline fill="none" stroke="black" points="1028.36,-585.315 1174.36,-585.315 "/>
<text text-anchor="start" x="1036.36" y="-568.715" font-family="Times Roman,serif" font-size="14.00">create</text>
<text text-anchor="start" x="1036.36" y="-550.715" font-family="Times Roman,serif" font-size="14.00">edit</text>
<text text-anchor="start" x="1036.36" y="-532.715" font-family="Times Roman,serif" font-size="14.00">index</text>
<text text-anchor="start" x="1036.36" y="-514.715" font-family="Times Roman,serif" font-size="14.00">new</text>
<text text-anchor="start" x="1036.36" y="-496.715" font-family="Times Roman,serif" font-size="14.00">show</text>
<polyline fill="none" stroke="black" points="1028.36,-487.315 1174.36,-487.315 "/>
<polyline fill="none" stroke="black" points="1028.36,-463.315 1174.36,-463.315 "/>
<text text-anchor="start" x="1036.36" y="-446.715" font-family="Times Roman,serif" font-size="14.00">_layout</text>
</g>
<!-- UserController -->
<g id="node10" class="node"><title>UserController</title>
<polyline fill="none" stroke="black" points="58.2831,-465.232 151.283,-465.232 "/>
<path fill="none" stroke="black" d="M151.283,-465.232C157.283,-465.232 163.283,-471.232 163.283,-477.232"/>
<polyline fill="none" stroke="black" points="163.283,-477.232 163.283,-553.232 "/>
<path fill="none" stroke="black" d="M163.283,-553.232C163.283,-559.232 157.283,-565.232 151.283,-565.232"/>
<polyline fill="none" stroke="black" points="151.283,-565.232 58.2831,-565.232 "/>
<path fill="none" stroke="black" d="M58.2831,-565.232C52.2831,-565.232 46.2831,-559.232 46.2831,-553.232"/>
<polyline fill="none" stroke="black" points="46.2831,-553.232 46.2831,-477.232 "/>
<path fill="none" stroke="black" d="M46.2831,-477.232C46.2831,-471.232 52.2831,-465.232 58.2831,-465.232"/>
<text text-anchor="middle" x="104.783" y="-548.632" font-family="Times Roman,serif" font-size="14.00">UserController</text>
<polyline fill="none" stroke="black" points="46.2831,-539.232 163.283,-539.232 "/>
<polyline fill="none" stroke="black" points="46.2831,-515.232 163.283,-515.232 "/>
<polyline fill="none" stroke="black" points="46.2831,-491.232 163.283,-491.232 "/>
<text text-anchor="start" x="54.2831" y="-474.632" font-family="Times Roman,serif" font-size="14.00">_layout</text>
</g>
<!-- CategoriesController -->
<g id="node11" class="node"><title>CategoriesController</title>
<polyline fill="none" stroke="black" points="665.9,-7.44169 800.9,-7.44169 "/>
<path fill="none" stroke="black" d="M800.9,-7.44169C806.9,-7.44169 812.9,-13.4417 812.9,-19.4417"/>
<polyline fill="none" stroke="black" points="812.9,-19.4417 812.9,-205.442 "/>
<path fill="none" stroke="black" d="M812.9,-205.442C812.9,-211.442 806.9,-217.442 800.9,-217.442"/>
<polyline fill="none" stroke="black" points="800.9,-217.442 665.9,-217.442 "/>
<path fill="none" stroke="black" d="M665.9,-217.442C659.9,-217.442 653.9,-211.442 653.9,-205.442"/>
<polyline fill="none" stroke="black" points="653.9,-205.442 653.9,-19.4417 "/>
<path fill="none" stroke="black" d="M653.9,-19.4417C653.9,-13.4417 659.9,-7.44169 665.9,-7.44169"/>
<text text-anchor="middle" x="733.4" y="-200.842" font-family="Times Roman,serif" font-size="14.00">CategoriesController</text>
<polyline fill="none" stroke="black" points="653.9,-191.442 812.9,-191.442 "/>
<text text-anchor="start" x="661.9" y="-174.842" font-family="Times Roman,serif" font-size="14.00">create</text>
<text text-anchor="start" x="661.9" y="-156.842" font-family="Times Roman,serif" font-size="14.00">destroy</text>
<text text-anchor="start" x="661.9" y="-138.842" font-family="Times Roman,serif" font-size="14.00">edit</text>
<text text-anchor="start" x="661.9" y="-120.842" font-family="Times Roman,serif" font-size="14.00">index</text>
<text text-anchor="start" x="661.9" y="-102.842" font-family="Times Roman,serif" font-size="14.00">new</text>
<text text-anchor="start" x="661.9" y="-84.8417" font-family="Times Roman,serif" font-size="14.00">show</text>
<text text-anchor="start" x="661.9" y="-66.8417" font-family="Times Roman,serif" font-size="14.00">update</text>
<polyline fill="none" stroke="black" points="653.9,-57.4417 812.9,-57.4417 "/>
<polyline fill="none" stroke="black" points="653.9,-33.4417 812.9,-33.4417 "/>
<text text-anchor="start" x="661.9" y="-16.8417" font-family="Times Roman,serif" font-size="14.00">_layout</text>
</g>
<!-- PoolsController -->
<g id="node12" class="node"><title>PoolsController</title>
<polyline fill="none" stroke="black" points="399.716,-321.655 496.716,-321.655 "/>
<path fill="none" stroke="black" d="M496.716,-321.655C502.716,-321.655 508.716,-327.655 508.716,-333.655"/>
<polyline fill="none" stroke="black" points="508.716,-333.655 508.716,-501.655 "/>
<path fill="none" stroke="black" d="M508.716,-501.655C508.716,-507.655 502.716,-513.655 496.716,-513.655"/>
<polyline fill="none" stroke="black" points="496.716,-513.655 399.716,-513.655 "/>
<path fill="none" stroke="black" d="M399.716,-513.655C393.716,-513.655 387.716,-507.655 387.716,-501.655"/>
<polyline fill="none" stroke="black" points="387.716,-501.655 387.716,-333.655 "/>
<path fill="none" stroke="black" d="M387.716,-333.655C387.716,-327.655 393.716,-321.655 399.716,-321.655"/>
<text text-anchor="middle" x="448.216" y="-497.055" font-family="Times Roman,serif" font-size="14.00">PoolsController</text>
<polyline fill="none" stroke="black" points="387.716,-487.655 508.716,-487.655 "/>
<text text-anchor="start" x="395.716" y="-471.055" font-family="Times Roman,serif" font-size="14.00">create</text>
<text text-anchor="start" x="395.716" y="-453.055" font-family="Times Roman,serif" font-size="14.00">edit</text>
<text text-anchor="start" x="395.716" y="-435.055" font-family="Times Roman,serif" font-size="14.00">index</text>
<text text-anchor="start" x="395.716" y="-417.055" font-family="Times Roman,serif" font-size="14.00">new</text>
<text text-anchor="start" x="395.716" y="-399.055" font-family="Times Roman,serif" font-size="14.00">show</text>
<text text-anchor="start" x="395.716" y="-381.055" font-family="Times Roman,serif" font-size="14.00">update</text>
<polyline fill="none" stroke="black" points="387.716,-371.655 508.716,-371.655 "/>
<polyline fill="none" stroke="black" points="387.716,-347.655 508.716,-347.655 "/>
<text text-anchor="start" x="395.716" y="-331.055" font-family="Times Roman,serif" font-size="14.00">_layout</text>
</g>
<!-- InventoriesController -->
<g id="node13" class="node"><title>InventoriesController</title>
<polyline fill="none" stroke="black" points="13,-1099.75 236,-1099.75 "/>
<path fill="none" stroke="black" d="M236,-1099.75C242,-1099.75 248,-1105.75 248,-1111.75"/>
<polyline fill="none" stroke="black" points="248,-1111.75 248,-1315.75 "/>
<path fill="none" stroke="black" d="M248,-1315.75C248,-1321.75 242,-1327.75 236,-1327.75"/>
<polyline fill="none" stroke="black" points="236,-1327.75 13,-1327.75 "/>
<path fill="none" stroke="black" d="M13,-1327.75C7,-1327.75 1,-1321.75 1,-1315.75"/>
<polyline fill="none" stroke="black" points="1,-1315.75 1,-1111.75 "/>
<path fill="none" stroke="black" d="M1,-1111.75C1,-1105.75 7,-1099.75 13,-1099.75"/>
<text text-anchor="middle" x="124.5" y="-1311.15" font-family="Times Roman,serif" font-size="14.00">InventoriesController</text>
<polyline fill="none" stroke="black" points="1,-1301.75 248,-1301.75 "/>
<text text-anchor="start" x="9" y="-1285.15" font-family="Times Roman,serif" font-size="14.00">_one_time_conditions_valid_304?</text>
<text text-anchor="start" x="9" y="-1267.15" font-family="Times Roman,serif" font-size="14.00">create</text>
<text text-anchor="start" x="9" y="-1249.15" font-family="Times Roman,serif" font-size="14.00">edit</text>
<text text-anchor="start" x="9" y="-1231.15" font-family="Times Roman,serif" font-size="14.00">index</text>
<text text-anchor="start" x="9" y="-1213.15" font-family="Times Roman,serif" font-size="14.00">my_inventories</text>
<text text-anchor="start" x="9" y="-1195.15" font-family="Times Roman,serif" font-size="14.00">new</text>
<text text-anchor="start" x="9" y="-1177.15" font-family="Times Roman,serif" font-size="14.00">show</text>
<text text-anchor="start" x="9" y="-1159.15" font-family="Times Roman,serif" font-size="14.00">update</text>
<polyline fill="none" stroke="black" points="1,-1149.75 248,-1149.75 "/>
<polyline fill="none" stroke="black" points="1,-1125.75 248,-1125.75 "/>
<text text-anchor="start" x="9" y="-1109.15" font-family="Times Roman,serif" font-size="14.00">_layout</text>
</g>
<!-- SeqRunsController -->
<g id="node14" class="node"><title>SeqRunsController</title>
<polyline fill="none" stroke="black" points="1039.96,-819.047 1160.96,-819.047 "/>
<path fill="none" stroke="black" d="M1160.96,-819.047C1166.96,-819.047 1172.96,-825.047 1172.96,-831.047"/>
<polyline fill="none" stroke="black" points="1172.96,-831.047 1172.96,-909.047 "/>
<path fill="none" stroke="black" d="M1172.96,-909.047C1172.96,-915.047 1166.96,-921.047 1160.96,-921.047"/>
<polyline fill="none" stroke="black" points="1160.96,-921.047 1039.96,-921.047 "/>
<path fill="none" stroke="black" d="M1039.96,-921.047C1033.96,-921.047 1027.96,-915.047 1027.96,-909.047"/>
<polyline fill="none" stroke="black" points="1027.96,-909.047 1027.96,-831.047 "/>
<path fill="none" stroke="black" d="M1027.96,-831.047C1027.96,-825.047 1033.96,-819.047 1039.96,-819.047"/>
<text text-anchor="middle" x="1100.46" y="-904.447" font-family="Times Roman,serif" font-size="14.00">SeqRunsController</text>
<polyline fill="none" stroke="black" points="1027.96,-895.047 1172.96,-895.047 "/>
<text text-anchor="start" x="1035.96" y="-878.447" font-family="Times Roman,serif" font-size="14.00">new</text>
<polyline fill="none" stroke="black" points="1027.96,-869.047 1172.96,-869.047 "/>
<polyline fill="none" stroke="black" points="1027.96,-845.047 1172.96,-845.047 "/>
<text text-anchor="start" x="1035.96" y="-828.447" font-family="Times Roman,serif" font-size="14.00">_layout</text>
</g>
<!-- TemplatesController -->
<g id="node15" class="node"><title>TemplatesController</title>
<polyline fill="none" stroke="black" points="975.005,-1093.64 1106,-1093.64 "/>
<path fill="none" stroke="black" d="M1106,-1093.64C1112,-1093.64 1118,-1099.64 1118,-1105.64"/>
<polyline fill="none" stroke="black" points="1118,-1105.64 1118,-1345.64 "/>
<path fill="none" stroke="black" d="M1118,-1345.64C1118,-1351.64 1112,-1357.64 1106,-1357.64"/>
<polyline fill="none" stroke="black" points="1106,-1357.64 975.005,-1357.64 "/>
<path fill="none" stroke="black" d="M975.005,-1357.64C969.005,-1357.64 963.005,-1351.64 963.005,-1345.64"/>
<polyline fill="none" stroke="black" points="963.005,-1345.64 963.005,-1105.64 "/>
<path fill="none" stroke="black" d="M963.005,-1105.64C963.005,-1099.64 969.005,-1093.64 975.005,-1093.64"/>
<text text-anchor="middle" x="1040.5" y="-1341.04" font-family="Times Roman,serif" font-size="14.00">TemplatesController</text>
<polyline fill="none" stroke="black" points="963.005,-1331.64 1118,-1331.64 "/>
<text text-anchor="start" x="971.005" y="-1315.04" font-family="Times Roman,serif" font-size="14.00">create</text>
<text text-anchor="start" x="971.005" y="-1297.04" font-family="Times Roman,serif" font-size="14.00">edit</text>
<text text-anchor="start" x="971.005" y="-1279.04" font-family="Times Roman,serif" font-size="14.00">index</text>
<text text-anchor="start" x="971.005" y="-1261.04" font-family="Times Roman,serif" font-size="14.00">new</text>
<text text-anchor="start" x="971.005" y="-1243.04" font-family="Times Roman,serif" font-size="14.00">show</text>
<text text-anchor="start" x="971.005" y="-1225.04" font-family="Times Roman,serif" font-size="14.00">update</text>
<text text-anchor="start" x="971.005" y="-1207.04" font-family="Times Roman,serif" font-size="14.00">update_libraries</text>
<text text-anchor="start" x="971.005" y="-1189.04" font-family="Times Roman,serif" font-size="14.00">validate_template</text>
<polyline fill="none" stroke="black" points="963.005,-1179.64 1118,-1179.64 "/>
<polyline fill="none" stroke="black" points="963.005,-1155.64 1118,-1155.64 "/>
<text text-anchor="start" x="971.005" y="-1139.04" font-family="Times Roman,serif" font-size="14.00">_layout</text>
<text text-anchor="start" x="971.005" y="-1121.04" font-family="Times Roman,serif" font-size="14.00">add_to_stock</text>
<text text-anchor="start" x="971.005" y="-1103.04" font-family="Times Roman,serif" font-size="14.00">delete_from_stock</text>
</g>
<!-- ApplicationController -->
<g id="node16" class="node"><title>ApplicationController</title>
<polyline fill="none" stroke="black" points="341.892,-595.213 593.892,-595.213 "/>
<path fill="none" stroke="black" d="M593.892,-595.213C599.892,-595.213 605.892,-601.213 605.892,-607.213"/>
<polyline fill="none" stroke="black" points="605.892,-607.213 605.892,-775.213 "/>
<path fill="none" stroke="black" d="M605.892,-775.213C605.892,-781.213 599.892,-787.213 593.892,-787.213"/>
<polyline fill="none" stroke="black" points="593.892,-787.213 341.892,-787.213 "/>
<path fill="none" stroke="black" d="M341.892,-787.213C335.892,-787.213 329.892,-781.213 329.892,-775.213"/>
<polyline fill="none" stroke="black" points="329.892,-775.213 329.892,-607.213 "/>
<path fill="none" stroke="black" d="M329.892,-607.213C329.892,-601.213 335.892,-595.213 341.892,-595.213"/>
<text text-anchor="middle" x="467.892" y="-770.613" font-family="Times Roman,serif" font-size="14.00">ApplicationController</text>
<polyline fill="none" stroke="black" points="329.892,-761.213 605.892,-761.213 "/>
<text text-anchor="start" x="337.892" y="-744.613" font-family="Times Roman,serif" font-size="14.00">_one_time_conditions_valid_128?</text>
<text text-anchor="start" x="337.892" y="-726.613" font-family="Times Roman,serif" font-size="14.00">_one_time_conditions_valid_130?</text>
<text text-anchor="start" x="337.892" y="-708.613" font-family="Times Roman,serif" font-size="14.00">_one_time_conditions_valid_134?</text>
<text text-anchor="start" x="337.892" y="-690.613" font-family="Times Roman,serif" font-size="14.00">after_sign_in_path_for</text>
<text text-anchor="start" x="337.892" y="-672.613" font-family="Times Roman,serif" font-size="14.00">correct_safari_and_ie_accept_headers</text>
<text text-anchor="start" x="337.892" y="-654.613" font-family="Times Roman,serif" font-size="14.00">set_xhr_flash</text>
<polyline fill="none" stroke="black" points="329.892,-645.213 605.892,-645.213 "/>
<polyline fill="none" stroke="black" points="329.892,-621.213 605.892,-621.213 "/>
<text text-anchor="start" x="337.892" y="-604.613" font-family="Times Roman,serif" font-size="14.00">_layout</text>
</g>
<!-- ApplicationController&#45;&gt;StaticPagesController -->
<g id="edge2" class="edge"><title>ApplicationController&#45;&gt;StaticPagesController</title>
<path fill="none" stroke="black" d="M329.644,-743.553C275.573,-764.024 215.375,-786.815 168.309,-804.634"/>
</g>
<!-- ApplicationController&#45;&gt;UsersController -->
<g id="edge4" class="edge"><title>ApplicationController&#45;&gt;UsersController</title>
<path fill="none" stroke="black" d="M606.017,-696.586C625.053,-697.327 644.504,-698.083 663.259,-698.813"/>
</g>
<!-- ApplicationController&#45;&gt;SamplesController -->
<g id="edge6" class="edge"><title>ApplicationController&#45;&gt;SamplesController</title>
<path fill="none" stroke="black" d="M412.487,-594.873C400.952,-570.212 390.49,-543.196 384.516,-516.855 361.391,-414.89 375.878,-295.5 392.55,-211.873"/>
</g>
<!-- ApplicationController&#45;&gt;ProjectsController -->
<g id="edge8" class="edge"><title>ApplicationController&#45;&gt;ProjectsController</title>
<path fill="none" stroke="black" d="M489.245,-787.588C495.725,-817.74 502.702,-851.163 508.667,-881.905 524.677,-964.428 540.92,-1057.63 553.128,-1130.01"/>
</g>
<!-- ApplicationController&#45;&gt;LibrariesController -->
<g id="edge10" class="edge"><title>ApplicationController&#45;&gt;LibrariesController</title>
<path fill="none" stroke="black" d="M559.714,-787.239C595.247,-824.399 635.332,-866.32 668.79,-901.309"/>
</g>
<!-- ApplicationController&#45;&gt;SharedmessagesController -->
<g id="edge12" class="edge"><title>ApplicationController&#45;&gt;SharedmessagesController</title>
<path fill="none" stroke="black" d="M445.795,-787.454C438.465,-819.382 430.399,-854.512 423.42,-884.911"/>
</g>
<!-- ApplicationController&#45;&gt;MessagesController -->
<g id="edge14" class="edge"><title>ApplicationController&#45;&gt;MessagesController</title>
<path fill="none" stroke="black" d="M400.112,-594.942C318.944,-479.656 185.995,-290.824 122.401,-200.499"/>
</g>
<!-- ApplicationController&#45;&gt;PgmrunsController -->
<g id="edge16" class="edge"><title>ApplicationController&#45;&gt;PgmrunsController</title>
<path fill="none" stroke="black" d="M606.077,-631.824C624.149,-625.104 642.561,-618.766 660.335,-613.428 787.332,-575.289 939.822,-548.547 1028.16,-534.857"/>
</g>
<!-- ApplicationController&#45;&gt;UserController -->
<g id="edge18" class="edge"><title>ApplicationController&#45;&gt;UserController</title>
<path fill="none" stroke="black" d="M329.839,-624.306C272.289,-596.414 208.543,-565.519 163.629,-543.752"/>
</g>
<!-- ApplicationController&#45;&gt;CategoriesController -->
<g id="edge20" class="edge"><title>ApplicationController&#45;&gt;CategoriesController</title>
<path fill="none" stroke="black" d="M509.572,-594.823C543.866,-516.147 594.132,-402.271 640.077,-303.672 653.145,-275.628 667.65,-245.466 681.254,-217.574"/>
</g>
<!-- ApplicationController&#45;&gt;PoolsController -->
<g id="edge22" class="edge"><title>ApplicationController&#45;&gt;PoolsController</title>
<path fill="none" stroke="black" d="M460.983,-595.151C459.089,-568.825 457.036,-540.285 455.142,-513.947"/>
</g>
<!-- ApplicationController&#45;&gt;InventoriesController -->
<g id="edge24" class="edge"><title>ApplicationController&#45;&gt;InventoriesController</title>
<path fill="none" stroke="black" d="M377.108,-787.272C351.482,-816.564 324.539,-849.591 302.267,-881.905 254.79,-950.786 210.349,-1033.75 177.776,-1099.49"/>
</g>
<!-- ApplicationController&#45;&gt;SeqRunsController -->
<g id="edge26" class="edge"><title>ApplicationController&#45;&gt;SeqRunsController</title>
<path fill="none" stroke="black" d="M606.129,-771.548C623.994,-779.945 642.339,-787.651 660.335,-793.828 726.989,-816.709 920.841,-845.518 1027.68,-860.305"/>
</g>
<!-- ApplicationController&#45;&gt;TemplatesController -->
<g id="edge28" class="edge"><title>ApplicationController&#45;&gt;TemplatesController</title>
<path fill="none" stroke="black" d="M606.061,-770.018C624.016,-778.728 642.402,-786.926 660.335,-793.828 727.342,-819.618 759.867,-789.598 817.06,-833.002 903.123,-898.316 961.262,-1007.02 996.611,-1093.52"/>
</g>
<!-- MianesController -->
<g id="node17" class="node"><title>MianesController</title>
<polyline fill="none" stroke="black" points="655.277,-306.872 878.277,-306.872 "/>
<path fill="none" stroke="black" d="M878.277,-306.872C884.277,-306.872 890.277,-312.872 890.277,-318.872"/>
<polyline fill="none" stroke="black" points="890.277,-318.872 890.277,-540.872 "/>
<path fill="none" stroke="black" d="M890.277,-540.872C890.277,-546.872 884.277,-552.872 878.277,-552.872"/>
<polyline fill="none" stroke="black" points="878.277,-552.872 655.277,-552.872 "/>
<path fill="none" stroke="black" d="M655.277,-552.872C649.277,-552.872 643.277,-546.872 643.277,-540.872"/>
<polyline fill="none" stroke="black" points="643.277,-540.872 643.277,-318.872 "/>
<path fill="none" stroke="black" d="M643.277,-318.872C643.277,-312.872 649.277,-306.872 655.277,-306.872"/>
<text text-anchor="middle" x="766.777" y="-536.272" font-family="Times Roman,serif" font-size="14.00">MianesController</text>
<polyline fill="none" stroke="black" points="643.277,-526.872 890.277,-526.872 "/>
<text text-anchor="start" x="651.277" y="-510.272" font-family="Times Roman,serif" font-size="14.00">_one_time_conditions_valid_364?</text>
<text text-anchor="start" x="651.277" y="-492.272" font-family="Times Roman,serif" font-size="14.00">_one_time_conditions_valid_366?</text>
<text text-anchor="start" x="651.277" y="-474.272" font-family="Times Roman,serif" font-size="14.00">create</text>
<text text-anchor="start" x="651.277" y="-456.272" font-family="Times Roman,serif" font-size="14.00">edit</text>
<text text-anchor="start" x="651.277" y="-438.272" font-family="Times Roman,serif" font-size="14.00">index</text>
<text text-anchor="start" x="651.277" y="-420.272" font-family="Times Roman,serif" font-size="14.00">new</text>
<text text-anchor="start" x="651.277" y="-402.272" font-family="Times Roman,serif" font-size="14.00">show</text>
<text text-anchor="start" x="651.277" y="-384.272" font-family="Times Roman,serif" font-size="14.00">update</text>
<polyline fill="none" stroke="black" points="643.277,-374.872 890.277,-374.872 "/>
<polyline fill="none" stroke="black" points="643.277,-350.872 890.277,-350.872 "/>
<text text-anchor="start" x="651.277" y="-334.272" font-family="Times Roman,serif" font-size="14.00">_layout</text>
<text text-anchor="start" x="651.277" y="-316.272" font-family="Times Roman,serif" font-size="14.00">find_project</text>
</g>
<!-- ApplicationController&#45;&gt;MianesController -->
<g id="edge30" class="edge"><title>ApplicationController&#45;&gt;MianesController</title>
<path fill="none" stroke="black" d="M577.912,-595.012C599.135,-576.456 621.499,-556.901 643.121,-537.995"/>
</g>
<!-- EventsController -->
<g id="node18" class="node"><title>EventsController</title>
<polyline fill="none" stroke="black" points="1030.43,-39.8684 1139.43,-39.8684 "/>
<path fill="none" stroke="black" d="M1139.43,-39.8684C1145.43,-39.8684 1151.43,-45.8684 1151.43,-51.8684"/>
<polyline fill="none" stroke="black" points="1151.43,-51.8684 1151.43,-237.868 "/>
<path fill="none" stroke="black" d="M1151.43,-237.868C1151.43,-243.868 1145.43,-249.868 1139.43,-249.868"/>
<polyline fill="none" stroke="black" points="1139.43,-249.868 1030.43,-249.868 "/>
<path fill="none" stroke="black" d="M1030.43,-249.868C1024.43,-249.868 1018.43,-243.868 1018.43,-237.868"/>
<polyline fill="none" stroke="black" points="1018.43,-237.868 1018.43,-51.8684 "/>
<path fill="none" stroke="black" d="M1018.43,-51.8684C1018.43,-45.8684 1024.43,-39.8684 1030.43,-39.8684"/>
<text text-anchor="middle" x="1084.93" y="-233.268" font-family="Times Roman,serif" font-size="14.00">EventsController</text>
<polyline fill="none" stroke="black" points="1018.43,-223.868 1151.43,-223.868 "/>
<text text-anchor="start" x="1026.43" y="-207.268" font-family="Times Roman,serif" font-size="14.00">create</text>
<text text-anchor="start" x="1026.43" y="-189.268" font-family="Times Roman,serif" font-size="14.00">destroy</text>
<text text-anchor="start" x="1026.43" y="-171.268" font-family="Times Roman,serif" font-size="14.00">edit</text>
<text text-anchor="start" x="1026.43" y="-153.268" font-family="Times Roman,serif" font-size="14.00">index</text>
<text text-anchor="start" x="1026.43" y="-135.268" font-family="Times Roman,serif" font-size="14.00">new</text>
<text text-anchor="start" x="1026.43" y="-117.268" font-family="Times Roman,serif" font-size="14.00">show</text>
<text text-anchor="start" x="1026.43" y="-99.2684" font-family="Times Roman,serif" font-size="14.00">update</text>
<polyline fill="none" stroke="black" points="1018.43,-89.8684 1151.43,-89.8684 "/>
<polyline fill="none" stroke="black" points="1018.43,-65.8684 1151.43,-65.8684 "/>
<text text-anchor="start" x="1026.43" y="-49.2684" font-family="Times Roman,serif" font-size="14.00">_layout</text>
</g>
<!-- ApplicationController&#45;&gt;EventsController -->
<g id="edge32" class="edge"><title>ApplicationController&#45;&gt;EventsController</title>
<path fill="none" stroke="black" d="M500.813,-594.777C536.887,-494.028 595.543,-344.975 640.077,-303.672 696.37,-251.462 908.314,-190.668 1018.09,-161.78"/>
</g>
</g>
</svg>
