<?xml version="1.0" encoding="UTF-8" standalone="no"?>
<!DOCTYPE svg PUBLIC "-//W3C//DTD SVG 1.1//EN"
 "http://www.w3.org/Graphics/SVG/1.1/DTD/svg11.dtd">
<!-- Generated by graphviz version 2.26.3 (20100126.1600)
 -->
<!-- Title: models_diagram Pages: 1 -->
<svg width="1441pt" height="472pt"
 viewBox="0.00 0.00 1441.00 472.00" xmlns="http://www.w3.org/2000/svg" xmlns:xlink="http://www.w3.org/1999/xlink">
<g id="graph1" class="graph" transform="scale(1 1) rotate(0) translate(4 468)">
<title>models_diagram</title>
<polygon fill="white" stroke="white" points="-4,5 -4,-468 1438,-468 1438,5 -4,5"/>
<!-- _diagram_info -->
<g id="node1" class="node"><title>_diagram_info</title>
<text text-anchor="start" x="219" y="-447.8" font-family="Times Roman,serif" font-size="13.00">Models diagram</text>
<text text-anchor="start" x="219" y="-430.8" font-family="Times Roman,serif" font-size="13.00">Date: Aug 12 2013 &#45; 10:38</text>
<text text-anchor="start" x="219" y="-413.8" font-family="Times Roman,serif" font-size="13.00">Migration version: 20130809133021</text>
<text text-anchor="start" x="219" y="-396.8" font-family="Times Roman,serif" font-size="13.00">Generated by RailRoady 1.1.1</text>
<text text-anchor="start" x="219" y="-379.8" font-family="Times Roman,serif" font-size="13.00">http://railroady.prestonlee.com</text>
</g>
<!-- Miane -->
<g id="node2" class="node"><title>Miane</title>
<ellipse fill="none" stroke="black" cx="69" cy="-167" rx="41.0122" ry="18.3848"/>
<text text-anchor="middle" x="69" y="-163.4" font-family="Times Roman,serif" font-size="14.00">Miane</text>
</g>
<!-- Pgmrun -->
<g id="node3" class="node"><title>Pgmrun</title>
<ellipse fill="none" stroke="black" cx="564" cy="-167" rx="50.2046" ry="18.3848"/>
<text text-anchor="middle" x="564" y="-163.4" font-family="Times Roman,serif" font-size="14.00">Pgmrun</text>
</g>
<!-- Inventory -->
<g id="node14" class="node"><title>Inventory</title>
<ellipse fill="none" stroke="black" cx="515" cy="-19" rx="58.8978" ry="18.3848"/>
<text text-anchor="middle" x="515" y="-15.4" font-family="Times Roman,serif" font-size="14.00">Inventory</text>
</g>
<!-- Pgmrun&#45;&gt;Inventory -->
<g id="edge4" class="edge"><title>Pgmrun&#45;&gt;Inventory</title>
<path fill="none" stroke="#ba7d0f" d="M554.659,-138.785C545.977,-112.565 533.113,-73.7098 524.41,-47.4226"/>
<polygon fill="#ba7d0f" stroke="#ba7d0f" points="554.75,-139.062 553.621,-149.969 556.322,-143.808 557.893,-148.555 557.893,-148.555 557.893,-148.555 556.322,-143.808 562.165,-147.141 554.75,-139.062 554.75,-139.062"/>
<polygon fill="#ba7d0f" stroke="#ba7d0f" points="524.327,-47.1707 525.456,-36.2631 522.755,-42.4241 521.184,-37.6775 521.184,-37.6775 521.184,-37.6775 522.755,-42.4241 516.912,-39.0919 524.327,-47.1707 524.327,-47.1707"/>
</g>
<!-- Project -->
<g id="node4" class="node"><title>Project</title>
<ellipse fill="none" stroke="black" cx="138" cy="-241" rx="45.9619" ry="18.3848"/>
<text text-anchor="middle" x="138" y="-237.4" font-family="Times Roman,serif" font-size="14.00">Project</text>
</g>
<!-- Project&#45;&gt;Miane -->
<g id="edge8" class="edge"><title>Project&#45;&gt;Miane</title>
<path fill="none" stroke="#ecd8c6" d="M115.944,-217.346C108.242,-209.086 99.5847,-199.801 91.8215,-191.475"/>
<ellipse fill="none" stroke="#ecd8c6" cx="118.92" cy="-220.537" rx="4.00002" ry="4.00002"/>
<polygon fill="#ecd8c6" stroke="#ecd8c6" points="91.8163,-191.47 88.2879,-181.087 88.4065,-187.813 84.9966,-184.156 84.9966,-184.156 84.9966,-184.156 88.4065,-187.813 81.7054,-187.225 91.8163,-191.47 91.8163,-191.47"/>
</g>
<!-- Sample -->
<g id="node13" class="node"><title>Sample</title>
<ellipse fill="none" stroke="black" cx="175" cy="-167" rx="46.8775" ry="18.3848"/>
<text text-anchor="middle" x="175" y="-163.4" font-family="Times Roman,serif" font-size="14.00">Sample</text>
</g>
<!-- Project&#45;&gt;Sample -->
<g id="edge10" class="edge"><title>Project&#45;&gt;Sample</title>
<path fill="none" stroke="#e0b0f6" d="M150.786,-215.427C154.19,-208.621 157.879,-201.243 161.327,-194.346"/>
<ellipse fill="none" stroke="#e0b0f6" cx="148.935" cy="-219.13" rx="4.00002" ry="4.00002"/>
<polygon fill="#e0b0f6" stroke="#e0b0f6" points="161.359,-194.282 169.856,-187.351 163.595,-189.81 165.831,-185.338 165.831,-185.338 165.831,-185.338 163.595,-189.81 161.806,-183.326 161.359,-194.282 161.359,-194.282"/>
</g>
<!-- Library -->
<g id="node5" class="node"><title>Library</title>
<ellipse fill="none" stroke="black" cx="274" cy="-93" rx="45.9619" ry="18.3848"/>
<text text-anchor="middle" x="274" y="-89.4" font-family="Times Roman,serif" font-size="14.00">Library</text>
</g>
<!-- Library&#45;&gt;Inventory -->
<g id="edge14" class="edge"><title>Library&#45;&gt;Inventory</title>
<path fill="none" stroke="#b81447" d="M320.208,-78.8116C361.089,-66.259 420.677,-47.9621 463.168,-34.9153"/>
<polygon fill="#b81447" stroke="#b81447" points="320.162,-78.8256 309.282,-77.4592 315.382,-80.2933 310.603,-81.761 310.603,-81.761 310.603,-81.761 315.382,-80.2933 311.924,-86.0628 320.162,-78.8256 320.162,-78.8256"/>
<polygon fill="#b81447" stroke="#b81447" points="463.209,-34.9026 474.09,-36.269 467.989,-33.4349 472.769,-31.9672 472.769,-31.9672 472.769,-31.9672 467.989,-33.4349 471.448,-27.6654 463.209,-34.9026 463.209,-34.9026"/>
</g>
<!-- Lib5ul -->
<g id="node15" class="node"><title>Lib5ul</title>
<ellipse fill="none" stroke="black" cx="274" cy="-19" rx="41.2167" ry="18.3848"/>
<text text-anchor="middle" x="274" y="-15.4" font-family="Times Roman,serif" font-size="14.00">Lib5ul</text>
</g>
<!-- Library&#45;&gt;Lib5ul -->
<g id="edge16" class="edge"><title>Library&#45;&gt;Lib5ul</title>
<path fill="none" stroke="#9957ad" d="M274,-66.309C274,-60.3769 274,-54.0606 274,-48.0396"/>
<ellipse fill="none" stroke="#9957ad" cx="274" cy="-70.3267" rx="4" ry="4"/>
<polygon fill="#9957ad" stroke="#9957ad" points="274,-47.6674 278.5,-37.6673 274,-42.6674 274,-37.6674 274,-37.6674 274,-37.6674 274,-42.6674 269.5,-37.6674 274,-47.6674 274,-47.6674"/>
</g>
<!-- Sharedmessage -->
<g id="node6" class="node"><title>Sharedmessage</title>
<ellipse fill="none" stroke="black" cx="648" cy="-241" rx="87.889" ry="18.3848"/>
<text text-anchor="middle" x="648" y="-237.4" font-family="Times Roman,serif" font-size="14.00">Sharedmessage</text>
</g>
<!-- Event -->
<g id="node7" class="node"><title>Event</title>
<ellipse fill="none" stroke="black" cx="1032" cy="-315" rx="39.8075" ry="18.3848"/>
<text text-anchor="middle" x="1032" y="-311.4" font-family="Times Roman,serif" font-size="14.00">Event</text>
</g>
<!-- Ability -->
<g id="node8" class="node"><title>Ability</title>
<polygon fill="none" stroke="black" points="1420,-333 1360,-333 1360,-297 1420,-297 1420,-333"/>
<text text-anchor="middle" x="1390" y="-311.4" font-family="Times Roman,serif" font-size="14.00">Ability</text>
</g>
<!-- Pool -->
<g id="node9" class="node"><title>Pool</title>
<ellipse fill="none" stroke="black" cx="348" cy="-167" rx="31.8198" ry="18.3848"/>
<text text-anchor="middle" x="348" y="-163.4" font-family="Times Roman,serif" font-size="14.00">Pool</text>
</g>
<!-- Pool&#45;&gt;Library -->
<g id="edge26" class="edge"><title>Pool&#45;&gt;Library</title>
<path fill="none" stroke="#5fdb8a" d="M326.036,-145.036C317.37,-136.37 307.377,-126.377 298.479,-117.479"/>
<ellipse fill="none" stroke="#5fdb8a" cx="329.115" cy="-148.115" rx="4.00002" ry="4.00002"/>
<polygon fill="#5fdb8a" stroke="#5fdb8a" points="298.387,-117.387 294.498,-107.134 294.852,-113.852 291.316,-110.316 291.316,-110.316 291.316,-110.316 294.852,-113.852 288.134,-113.498 298.387,-117.387 298.387,-117.387"/>
</g>
<!-- Pool&#45;&gt;Lib5ul -->
<g id="edge28" class="edge"><title>Pool&#45;&gt;Lib5ul</title>
<path fill="none" stroke="#1edda8" d="M346.646,-140.354C344.717,-120.965 340.083,-94.6072 329,-74 322.54,-61.9883 312.616,-50.8936 302.967,-41.862"/>
<ellipse fill="none" stroke="#1edda8" cx="346.997" cy="-144.478" rx="4" ry="4"/>
<polygon fill="#1edda8" stroke="#1edda8" points="302.825,-41.7357 298.353,-31.7233 299.092,-38.4093 295.359,-35.083 295.359,-35.083 295.359,-35.083 299.092,-38.4093 292.366,-38.4427 302.825,-41.7357 302.825,-41.7357"/>
</g>
<!-- Category -->
<g id="node10" class="node"><title>Category</title>
<ellipse fill="none" stroke="black" cx="754" cy="-93" rx="56.0679" ry="18.3848"/>
<text text-anchor="middle" x="754" y="-89.4" font-family="Times Roman,serif" font-size="14.00">Category</text>
</g>
<!-- Category&#45;&gt;Inventory -->
<g id="edge32" class="edge"><title>Category&#45;&gt;Inventory</title>
<path fill="none" stroke="#0fbdcd" d="M705.02,-77.8348C664.797,-65.3807 607.976,-47.7874 566.96,-35.0879"/>
<ellipse fill="none" stroke="#0fbdcd" cx="709.093" cy="-79.0958" rx="4.00001" ry="4.00001"/>
<polygon fill="#0fbdcd" stroke="#0fbdcd" points="566.707,-35.0098 558.486,-27.7534 561.931,-33.531 557.155,-32.0521 557.155,-32.0521 557.155,-32.0521 561.931,-33.531 555.824,-36.3507 566.707,-35.0098 566.707,-35.0098"/>
</g>
<!-- Experiment -->
<g id="node11" class="node"><title>Experiment</title>
<ellipse fill="none" stroke="black" cx="1158" cy="-315" rx="67.8823" ry="18.3848"/>
<text text-anchor="middle" x="1158" y="-311.4" font-family="Times Roman,serif" font-size="14.00">Experiment</text>
</g>
<!-- Template -->
<g id="node12" class="node"><title>Template</title>
<ellipse fill="none" stroke="black" cx="486" cy="-241" rx="55.8614" ry="18.3848"/>
<text text-anchor="middle" x="486" y="-237.4" font-family="Times Roman,serif" font-size="14.00">Template</text>
</g>
<!-- Template&#45;&gt;Pgmrun -->
<g id="edge40" class="edge"><title>Template&#45;&gt;Pgmrun</title>
<path fill="none" stroke="#7d5db0" d="M510.568,-217.692C519.351,-209.359 529.271,-199.948 538.158,-191.517"/>
<ellipse fill="none" stroke="#7d5db0" cx="507.387" cy="-220.71" rx="4.00002" ry="4.00002"/>
<polygon fill="#7d5db0" stroke="#7d5db0" points="538.393,-191.294 548.745,-187.676 542.02,-187.852 545.648,-184.411 545.648,-184.411 545.648,-184.411 542.02,-187.852 542.551,-181.146 538.393,-191.294 538.393,-191.294"/>
</g>
<!-- Template&#45;&gt;Pool -->
<g id="edge38" class="edge"><title>Template&#45;&gt;Pool</title>
<path fill="none" stroke="#4da34d" d="M449.323,-221.333C427.283,-209.514 399.557,-194.647 378.683,-183.453"/>
<ellipse fill="none" stroke="#4da34d" cx="452.87" cy="-223.235" rx="4.00002" ry="4.00002"/>
<ellipse fill="#4da34d" stroke="#4da34d" cx="375.131" cy="-181.548" rx="4.00002" ry="4.00002"/>
</g>
<!-- Template&#45;&gt;Inventory -->
<g id="edge42" class="edge"><title>Template&#45;&gt;Inventory</title>
<path fill="none" stroke="#cc4e4d" d="M489.722,-212.51C495.279,-169.964 505.689,-90.2805 511.258,-47.6452"/>
<polygon fill="#cc4e4d" stroke="#cc4e4d" points="489.718,-212.538 483.961,-221.871 489.07,-217.496 488.423,-222.454 488.423,-222.454 488.423,-222.454 489.07,-217.496 492.885,-223.037 489.718,-212.538 489.718,-212.538"/>
<polygon fill="#cc4e4d" stroke="#cc4e4d" points="511.268,-47.5649 517.026,-38.232 511.916,-42.607 512.564,-37.6491 512.564,-37.6491 512.564,-37.6491 511.916,-42.607 508.102,-37.0662 511.268,-47.5649 511.268,-47.5649"/>
</g>
<!-- Sample&#45;&gt;Library -->
<g id="edge46" class="edge"><title>Sample&#45;&gt;Library</title>
<path fill="none" stroke="#09cee9" d="M203.793,-145.478C216.433,-136.03 231.27,-124.939 244.041,-115.394"/>
<ellipse fill="none" stroke="#09cee9" cx="200.175" cy="-148.182" rx="4.00002" ry="4.00002"/>
<polygon fill="#09cee9" stroke="#09cee9" points="244.08,-115.364 254.784,-112.981 248.085,-112.371 252.09,-109.377 252.09,-109.377 252.09,-109.377 248.085,-112.371 249.396,-105.773 244.08,-115.364 244.08,-115.364"/>
</g>
<!-- SeqRun -->
<g id="node16" class="node"><title>SeqRun</title>
<ellipse fill="none" stroke="black" cx="1293" cy="-315" rx="48.7904" ry="18.3848"/>
<text text-anchor="middle" x="1293" y="-311.4" font-family="Times Roman,serif" font-size="14.00">SeqRun</text>
</g>
<!-- User -->
<g id="node17" class="node"><title>User</title>
<ellipse fill="none" stroke="black" cx="444" cy="-315" rx="33.9411" ry="18.3848"/>
<text text-anchor="middle" x="444" y="-311.4" font-family="Times Roman,serif" font-size="14.00">User</text>
</g>
<!-- User&#45;&gt;Project -->
<g id="edge56" class="edge"><title>User&#45;&gt;Project</title>
<path fill="none" stroke="#1d9035" d="M404.776,-305.514C349.406,-292.124 248.335,-267.682 187.752,-253.032"/>
<ellipse fill="none" stroke="#1d9035" cx="408.803" cy="-306.488" rx="4.00001" ry="4.00001"/>
<polygon fill="#1d9035" stroke="#1d9035" points="187.381,-252.942 178.719,-246.217 182.521,-251.767 177.661,-250.591 177.661,-250.591 177.661,-250.591 182.521,-251.767 176.603,-254.965 187.381,-252.942 187.381,-252.942"/>
</g>
<!-- User&#45;&gt;Library -->
<g id="edge60" class="edge"><title>User&#45;&gt;Library</title>
<path fill="none" stroke="#2e9f4d" d="M413.679,-296.933C398.274,-287.023 379.747,-273.935 365,-260 334.628,-231.3 327.139,-222.614 307,-186 295.714,-165.482 287.072,-140.361 281.468,-121.402"/>
<ellipse fill="none" stroke="#2e9f4d" cx="417.132" cy="-299.116" rx="4.00002" ry="4.00002"/>
<polygon fill="#2e9f4d" stroke="#2e9f4d" points="281.408,-121.19 282.998,-110.34 280.039,-116.381 278.67,-111.572 278.67,-111.572 278.67,-111.572 280.039,-116.381 274.342,-112.804 281.408,-121.19 281.408,-121.19"/>
</g>
<!-- User&#45;&gt;Sharedmessage -->
<g id="edge64" class="edge"><title>User&#45;&gt;Sharedmessage</title>
<path fill="none" stroke="#523ddd" d="M480.317,-301.826C511.882,-290.376 558.051,-273.629 593.956,-260.604"/>
<ellipse fill="none" stroke="#523ddd" cx="476.126" cy="-303.347" rx="4.00001" ry="4.00001"/>
<polygon fill="#523ddd" stroke="#523ddd" points="594.389,-260.447 605.325,-261.267 599.09,-258.742 603.79,-257.037 603.79,-257.037 603.79,-257.037 599.09,-258.742 602.255,-252.807 594.389,-260.447 594.389,-260.447"/>
</g>
<!-- User&#45;&gt;Pool -->
<g id="edge68" class="edge"><title>User&#45;&gt;Pool</title>
<path fill="none" stroke="#96cd07" d="M418.729,-294.113C408.245,-284.518 396.558,-272.502 388,-260 374.282,-239.961 363.72,-214.463 356.903,-195.235"/>
<ellipse fill="none" stroke="#96cd07" cx="421.746" cy="-296.805" rx="4.00002" ry="4.00002"/>
<polygon fill="#96cd07" stroke="#96cd07" points="356.825,-195.007 357.853,-184.089 355.21,-190.275 353.594,-185.544 353.594,-185.544 353.594,-185.544 355.21,-190.275 349.335,-186.998 356.825,-195.007 356.825,-195.007"/>
</g>
<!-- User&#45;&gt;Template -->
<g id="edge58" class="edge"><title>User&#45;&gt;Template</title>
<path fill="none" stroke="#eb8d2d" d="M458.17,-290.034C462.192,-282.948 466.589,-275.201 470.675,-268"/>
<ellipse fill="none" stroke="#eb8d2d" cx="456.141" cy="-293.608" rx="4.00002" ry="4.00002"/>
<polygon fill="#eb8d2d" stroke="#eb8d2d" points="470.699,-267.959 479.548,-261.484 473.167,-263.611 475.635,-259.262 475.635,-259.262 475.635,-259.262 473.167,-263.611 471.721,-257.041 470.699,-267.959 470.699,-267.959"/>
</g>
<!-- User&#45;&gt;Inventory -->
<g id="edge66" class="edge"><title>User&#45;&gt;Inventory</title>
<path fill="none" stroke="#85e4b5" d="M431.055,-289.925C426.991,-280.76 423.036,-270.148 421,-260 417.677,-243.441 417.367,-238.493 421,-222 435.75,-155.041 474.859,-83.8948 497.716,-46.1791"/>
<ellipse fill="none" stroke="#85e4b5" cx="432.769" cy="-293.614" rx="4.00002" ry="4.00002"/>
<polygon fill="#85e4b5" stroke="#85e4b5" points="497.917,-45.8532 506.986,-39.6898 500.535,-41.5934 503.153,-37.3336 503.153,-37.3336 503.153,-37.3336 500.535,-41.5934 499.319,-34.9774 497.917,-45.8532 497.917,-45.8532"/>
</g>
<!-- Message -->
<g id="node18" class="node"><title>Message</title>
<ellipse fill="none" stroke="black" cx="807" cy="-241" rx="53.033" ry="18.3848"/>
<text text-anchor="middle" x="807" y="-237.4" font-family="Times Roman,serif" font-size="14.00">Message</text>
</g>
<!-- User&#45;&gt;Message -->
<g id="edge62" class="edge"><title>User&#45;&gt;Message</title>
<path fill="none" stroke="#4a8e3c" d="M485.454,-308.993C543.795,-300.185 653.256,-282.359 745,-260 749.363,-258.937 753.872,-257.743 758.375,-256.486"/>
<ellipse fill="none" stroke="#4a8e3c" cx="481.181" cy="-309.634" rx="4.00001" ry="4.00001"/>
<polygon fill="#4a8e3c" stroke="#4a8e3c" points="758.558,-256.434 769.414,-257.982 763.362,-255.046 768.165,-253.659 768.165,-253.659 768.165,-253.659 763.362,-255.046 766.917,-249.336 758.558,-256.434 758.558,-256.434"/>
</g>
<!-- ActiveRecord::Base -->
<g id="node19" class="node"><title>ActiveRecord::Base</title>
<ellipse fill="none" stroke="black" cx="583" cy="-417" rx="104.151" ry="18.3848"/>
<text text-anchor="middle" x="583" y="-413.4" font-family="Times Roman,serif" font-size="14.00">ActiveRecord::Base</text>
</g>
<!-- ActiveRecord::Base&#45;&gt;Miane -->
<g id="edge2" class="edge"><title>ActiveRecord::Base&#45;&gt;Miane</title>
<path fill="none" stroke="black" d="M548.001,-399.462C526.114,-389.253 497.038,-377.045 470,-370 335.778,-335.028 285.459,-393.151 160,-334 117.068,-313.759 104.806,-302.159 83,-260 70.773,-236.361 68.4405,-205.121 68.3595,-185.544"/>
</g>
<!-- ActiveRecord::Base&#45;&gt;Pgmrun -->
<g id="edge6" class="edge"><title>ActiveRecord::Base&#45;&gt;Pgmrun</title>
<path fill="none" stroke="black" d="M645.241,-402.16C749.723,-374.417 942.129,-309.495 869,-222 837.082,-183.812 692.015,-172.095 614.003,-168.533"/>
</g>
<!-- ActiveRecord::Base&#45;&gt;Project -->
<g id="edge12" class="edge"><title>ActiveRecord::Base&#45;&gt;Project</title>
<path fill="none" stroke="black" d="M547.71,-399.499C525.838,-389.371 496.878,-377.233 470,-370 352.246,-338.312 301.011,-399.26 198,-334 170.407,-316.519 153.002,-281.244 144.422,-259.516"/>
</g>
<!-- ActiveRecord::Base&#45;&gt;Library -->
<g id="edge18" class="edge"><title>ActiveRecord::Base&#45;&gt;Library</title>
<path fill="none" stroke="black" d="M542.897,-399.837C521.373,-390.748 494.336,-379.526 470,-370 426.791,-353.086 407.983,-363.297 372,-334 313.177,-286.107 310.282,-258.193 287,-186 278.944,-161.019 275.879,-130.676 274.714,-111.596"/>
</g>
<!-- ActiveRecord::Base&#45;&gt;Sharedmessage -->
<g id="edge20" class="edge"><title>ActiveRecord::Base&#45;&gt;Sharedmessage</title>
<path fill="none" stroke="black" d="M589.833,-398.498C602.317,-364.695 628.673,-293.333 641.161,-259.519"/>
</g>
<!-- ActiveRecord::Base&#45;&gt;Event -->
<g id="edge22" class="edge"><title>ActiveRecord::Base&#45;&gt;Event</title>
<path fill="none" stroke="black" d="M658.331,-404.212C738.34,-389.925 868.169,-364.718 978,-334 985.465,-331.912 993.395,-329.333 1000.81,-326.755"/>
</g>
<!-- ActiveRecord::Base&#45;&gt;Pool -->
<g id="edge30" class="edge"><title>ActiveRecord::Base&#45;&gt;Pool</title>
<path fill="none" stroke="black" d="M541.837,-399.973C491.547,-378.903 411.783,-344.518 401,-334 359.301,-293.327 350.33,-220.056 348.457,-185.716"/>
</g>
<!-- ActiveRecord::Base&#45;&gt;Category -->
<g id="edge34" class="edge"><title>ActiveRecord::Base&#45;&gt;Category</title>
<path fill="none" stroke="black" d="M654.996,-403.575C728.109,-388.618 834.747,-362.73 865,-334 902.055,-298.811 911.263,-268.912 891,-222 868.848,-170.715 815.163,-130.386 781.955,-109.259"/>
</g>
<!-- ActiveRecord::Base&#45;&gt;Experiment -->
<g id="edge36" class="edge"><title>ActiveRecord::Base&#45;&gt;Experiment</title>
<path fill="none" stroke="black" d="M664.437,-405.39C763.345,-390.837 935.069,-364.119 1081,-334 1089.9,-332.163 1099.33,-330.01 1108.42,-327.827"/>
</g>
<!-- ActiveRecord::Base&#45;&gt;Template -->
<g id="edge44" class="edge"><title>ActiveRecord::Base&#45;&gt;Template</title>
<path fill="none" stroke="black" d="M572.803,-398.498C554.124,-364.607 514.637,-292.96 496.061,-259.255"/>
</g>
<!-- ActiveRecord::Base&#45;&gt;Sample -->
<g id="edge48" class="edge"><title>ActiveRecord::Base&#45;&gt;Sample</title>
<path fill="none" stroke="black" d="M547.404,-399.586C525.541,-389.554 496.698,-377.487 470,-370 368.685,-341.588 317.379,-400.704 236,-334 229.972,-329.059 195.477,-227.938 181.193,-185.498"/>
</g>
<!-- ActiveRecord::Base&#45;&gt;Inventory -->
<g id="edge50" class="edge"><title>ActiveRecord::Base&#45;&gt;Inventory</title>
<path fill="none" stroke="black" d="M675.34,-408.466C740.957,-398.752 828.666,-378.047 894,-334 936.895,-305.081 964,-292.733 964,-241 964,-241 964,-241 964,-167 964,-85.0257 690.637,-40.8698 570.507,-25.423"/>
</g>
<!-- ActiveRecord::Base&#45;&gt;Lib5ul -->
<g id="edge52" class="edge"><title>ActiveRecord::Base&#45;&gt;Lib5ul</title>
<path fill="none" stroke="black" d="M548.295,-399.406C526.396,-389.108 497.203,-376.826 470,-370 259.899,-317.283 0,-457.614 0,-241 0,-241 0,-241 0,-167 0,-62.1133 157.353,-31.2021 233.57,-22.3816"/>
</g>
<!-- ActiveRecord::Base&#45;&gt;SeqRun -->
<g id="edge54" class="edge"><title>ActiveRecord::Base&#45;&gt;SeqRun</title>
<path fill="none" stroke="black" d="M680.383,-410.405C808.709,-400.397 1040.89,-377.732 1235,-334 1242.34,-332.347 1250.07,-330.149 1257.41,-327.836"/>
</g>
<!-- ActiveRecord::Base&#45;&gt;User -->
<g id="edge70" class="edge"><title>ActiveRecord::Base&#45;&gt;User</title>
<path fill="none" stroke="black" d="M558.47,-398.999C531.815,-379.44 489.695,-348.531 464.663,-330.163"/>
</g>
<!-- ActiveRecord::Base&#45;&gt;Message -->
<g id="edge72" class="edge"><title>ActiveRecord::Base&#45;&gt;Message</title>
<path fill="none" stroke="black" d="M606.128,-398.828C649.611,-364.663 742.972,-291.308 785.32,-258.034"/>
</g>
<!-- Object -->
<g id="node31" class="node"><title>Object</title>
<ellipse fill="none" stroke="black" cx="1390" cy="-417" rx="43.1335" ry="18.3848"/>
<text text-anchor="middle" x="1390" y="-413.4" font-family="Times Roman,serif" font-size="14.00">Object</text>
</g>
<!-- Object&#45;&gt;Ability -->
<g id="edge24" class="edge"><title>Object&#45;&gt;Ability</title>
<path fill="none" stroke="black" d="M1390,-398.292C1390,-379.773 1390,-351.603 1390,-333.247"/>
</g>
</g>
</svg>
